<mxfile host="app.diagrams.net" agent="Mozilla/5.0 (iPad; CPU OS 17_7_0 like Mac OS X) AppleWebKit/605.1.15 (KHTML, like Gecko) CriOS/131.0.6778.73 Mobile/15E148 Safari/604.1" version="24.8.6">
  <diagram name="Page-1" id="DuXZzbCSL1fpq2oBDUcA">
    <mxGraphModel>
      <root>
        <mxCell id="0" />
        <mxCell id="1" parent="0" />
      </root>
    </mxGraphModel>
  </diagram>
</mxfile>
